<?xml version="1.0" encoding="UTF-8" standalone="no"?>
<svg
   xmlns:dc="http://purl.org/dc/elements/1.1/"
   xmlns:cc="http://creativecommons.org/ns#"
   xmlns:rdf="http://www.w3.org/1999/02/22-rdf-syntax-ns#"
   xmlns:svg="http://www.w3.org/2000/svg"
   xmlns="http://www.w3.org/2000/svg"
   xmlns:sodipodi="http://sodipodi.sourceforge.net/DTD/sodipodi-0.dtd"
   xmlns:inkscape="http://www.inkscape.org/namespaces/inkscape"
   sodipodi:docname="pawn.svg"
   inkscape:version="1.0 (4035a4fb49, 2020-05-01)"
   id="svg8"
   version="1.1"
   viewBox="0 0 6.8791668 16.404167"
   height="62"
   width="26">
  <defs
     id="defs2" />
  <sodipodi:namedview
     inkscape:window-maximized="1"
     inkscape:window-y="-8"
     inkscape:window-x="-8"
     inkscape:window-height="1377"
     inkscape:window-width="3440"
     units="px"
     inkscape:snap-intersection-paths="true"
     inkscape:guide-bbox="true"
     showguides="true"
     showgrid="false"
     inkscape:document-rotation="0"
     inkscape:current-layer="layer1"
     inkscape:document-units="px"
     inkscape:cy="31.923132"
     inkscape:cx="-0.44374567"
     inkscape:zoom="9.5725807"
     inkscape:pageshadow="2"
     inkscape:pageopacity="0.0"
     borderopacity="1.0"
     bordercolor="#666666"
     pagecolor="#ffffff"
     id="base">
    <inkscape:grid
       id="grid889"
       type="xygrid" />
  </sodipodi:namedview>
  <metadata
     id="metadata5">
    <rdf:RDF>
      <cc:Work
         rdf:about="">
        <dc:format>image/svg+xml</dc:format>
        <dc:type
           rdf:resource="http://purl.org/dc/dcmitype/StillImage" />
        <dc:title></dc:title>
      </cc:Work>
    </rdf:RDF>
  </metadata>
  <g
     id="layer1"
     inkscape:groupmode="layer"
     inkscape:label="Layer 1">
    <path
       d="m 3.4220132,4.2901791 a 2.8722976,2.8722976 0 0 0 -2.85460598,2.8721761 2.8722976,2.8722976 0 0 0 0,0.017053 v 0.2557984 5.7696734 0.818038 a 2.8937693,1.7992926 0 0 0 -0.0217041,0.218592 2.8937693,1.7992926 0 0 0 0.0217041,0.218591 v 0.08837 h 0.0211873 a 2.8937693,1.7992926 0 0 0 2.12028408,1.434021 2.8722976,2.8722976 0 0 0 0.7307048,0.09509 2.8722976,2.8722976 0 0 0 0.7353554,-0.0956 2.8937693,1.7992926 0 0 0 2.1161499,-1.433505 h 0.020671 v -0.0894 a 2.8937693,1.7992926 0 0 0 0.021704,-0.217557 2.8937693,1.7992926 0 0 0 -0.021704,-0.218592 v -0.77773 a 2.8722976,2.8722976 0 0 0 0,-0.04031 v -0.01757 -6.024955 a 2.8722976,2.8722976 0 0 0 0,-0.025321 2.8722976,2.8722976 0 0 0 -2.8721759,-2.8468547 2.8722976,2.8722976 0 0 0 -0.01757,0 z"
       style="fill:#183bb1;stroke:none;stroke-width:0.208894;stroke-linecap:round"
       id="circle851" />
    <path
       d="M 3.4220404,4.2807723 A 2.8722976,2.8722976 0 0 0 0.99690633,5.6422576 2.8722976,2.8722976 0 0 0 3.4395834,7.003743 2.8722976,2.8722976 0 0 0 5.8822603,5.6422576 2.8722976,2.8722976 0 0 0 3.4395834,4.2807723 a 2.8722976,2.8722976 0 0 0 -0.017547,0 z"
       style="fill:#002082;stroke:none;stroke-width:0.208894;stroke-linecap:round;fill-opacity:1"
       id="path864" />
    <path
       id="path1709"
       style="fill:none;stroke:#ced8f7;stroke-width:0.26458334;stroke-linecap:round;stroke-miterlimit:4;stroke-dasharray:none"
       d="m 3.4220132,4.2901791 a 2.8722976,2.8722976 0 0 0 -2.85460601,2.8721761 2.8722976,2.8722976 0 0 0 0,0.017053 v 0.2557984 5.7696734 0.818038 a 2.8937693,1.7992926 0 0 0 -0.0217041,0.218592 2.8937693,1.7992926 0 0 0 0.0217041,0.218591 v 0.08837 h 0.0211873 a 2.8937693,1.7992926 0 0 0 2.12028401,1.434021 2.8722976,2.8722976 0 0 0 0.7307049,0.09509 2.8722976,2.8722976 0 0 0 0.7353553,-0.0956 2.8937693,1.7992926 0 0 0 2.11615,-1.433505 h 0.02067 v -0.0894 a 2.8937693,1.7992926 0 0 0 0.021704,-0.217557 2.8937693,1.7992926 0 0 0 -0.021704,-0.218592 v -0.77773 a 2.8722976,2.8722976 0 0 0 0,-0.04031 v -0.01757 -6.024955 a 2.8722976,2.8722976 0 0 0 0,-0.025321 2.8722976,2.8722976 0 0 0 -2.8721758,-2.8468547 2.8722976,2.8722976 0 0 0 -0.01757,0 z" />
    <circle
       r="2.8722975"
       cy="3.1988821"
       cx="3.4395833"
       id="path847"
       style="fill:#183bb1;stroke:#ced8f7;stroke-width:0.26458334;stroke-linecap:round;stroke-miterlimit:4;stroke-dasharray:none" />
    <path
       transform="scale(0.26458333)"
       d="M 20.703443 19.739324 A 10.855928 10.855928 0 0 1 13 22.946191 A 10.855928 10.855928 0 0 1 5.1377129 19.575957 "
       style="fill:none;stroke:#3a5ee2;stroke-width:2.00000003;stroke-linecap:round;stroke-miterlimit:4;stroke-dasharray:none"
       id="path1515" />
    <path
       transform="scale(0.26458334)"
       d="M 11.31232 4.4971949 A 6.8802246 6.8802246 0 0 1 14.192777 3.8652067 A 6.8802246 6.8802246 0 0 1 21.073002 10.745432 L 21.073002 10.745432 A 6.8802246 6.8802246 0 0 1 20.860595 12.441808 "
       style="fill:#3a5ee2;fill-opacity:1;stroke:none;stroke-width:0.999999;stroke-linecap:round;stroke-miterlimit:4;stroke-dasharray:none"
       id="path1518" />
  </g>
</svg>
