<?xml version="1.0" encoding="UTF-8" standalone="no"?>
<svg
   xmlns:dc="http://purl.org/dc/elements/1.1/"
   xmlns:cc="http://creativecommons.org/ns#"
   xmlns:rdf="http://www.w3.org/1999/02/22-rdf-syntax-ns#"
   xmlns:svg="http://www.w3.org/2000/svg"
   xmlns="http://www.w3.org/2000/svg"
   xmlns:sodipodi="http://sodipodi.sourceforge.net/DTD/sodipodi-0.dtd"
   xmlns:inkscape="http://www.inkscape.org/namespaces/inkscape"
   width="256"
   height="128"
   viewBox="0 0 67.733332 33.866668"
   version="1.1"
   id="svg1047"
   inkscape:version="1.0 (4035a4fb49, 2020-05-01)"
   sodipodi:docname="machine_parts.svg">
  <defs
     id="defs1041" />
  <sodipodi:namedview
     inkscape:snap-intersection-paths="true"
     inkscape:guide-bbox="true"
     showguides="true"
     id="base"
     pagecolor="#ffffff"
     bordercolor="#666666"
     borderopacity="1.0"
     inkscape:pageopacity="0.0"
     inkscape:pageshadow="2"
     inkscape:zoom="9.1307693"
     inkscape:cx="131.81245"
     inkscape:cy="74.464381"
     inkscape:document-units="px"
     inkscape:current-layer="layer1"
     inkscape:document-rotation="0"
     showgrid="false"
     inkscape:window-width="3440"
     inkscape:window-height="1377"
     inkscape:window-x="-8"
     inkscape:window-y="-8"
     inkscape:window-maximized="1"
     units="px">
    <inkscape:grid
       type="xygrid"
       id="grid1624" />
    <sodipodi:guide
       id="guide1876"
       orientation="1,0"
       position="29.104166,25.929168" />
    <sodipodi:guide
       id="guide1878"
       orientation="1,0"
       position="55.562499,24.606251" />
  </sodipodi:namedview>
  <metadata
     id="metadata1044">
    <rdf:RDF>
      <cc:Work
         rdf:about="">
        <dc:format>image/svg+xml</dc:format>
        <dc:type
           rdf:resource="http://purl.org/dc/dcmitype/StillImage" />
        <dc:title />
      </cc:Work>
    </rdf:RDF>
  </metadata>
  <g
     inkscape:label="Layer 1"
     inkscape:groupmode="layer"
     id="layer1">
    <path
       id="path1931"
       style="display:inline;opacity:1;fill:#002082;fill-opacity:1;stroke:none;stroke-width:0.264583;stroke-linecap:round;stroke-miterlimit:4;stroke-dasharray:none;stroke-opacity:1"
       d="m 21.166672,17.842836 v 4.001823 a 4.0018206,2.0009117 0 0 0 4.001831,-2.000911 4.0018206,2.0009117 0 0 0 -4.001831,-2.000912 z" />
    <path
       id="path2014"
       style="display:inline;opacity:1;fill:#183bb1;fill-opacity:1;stroke:none;stroke-width:0.264583;stroke-linecap:round;stroke-miterlimit:4;stroke-dasharray:none;stroke-opacity:1"
       d="m 21.108802,17.842836 a 4.0018206,2.0009117 0 0 0 -3.94395,2.000912 4.0018206,2.0009117 0 0 0 4.00182,2.000911 v -4.001823 a 4.0018206,2.0009117 0 0 0 -0.0579,0 z" />
    <path
       id="path1949"
       style="display:inline;opacity:1;fill:#002082;fill-opacity:1;stroke:none;stroke-width:0.264583;stroke-linecap:round;stroke-miterlimit:4;stroke-dasharray:none;stroke-opacity:1"
       d="m 7.9375135,17.842836 v 4.001823 A 4.00182,2.000911 0 0 0 11.939333,19.843748 4.00182,2.000911 0 0 0 7.9375135,17.842836 Z" />
    <path
       id="path2018"
       style="display:inline;opacity:1;fill:#183bb1;fill-opacity:1;stroke:none;stroke-width:0.264583;stroke-linecap:round;stroke-miterlimit:4;stroke-dasharray:none;stroke-opacity:1"
       d="m 7.8796335,17.842836 a 4.00182,2.000911 0 0 0 -3.943951,2.000912 4.00182,2.000911 0 0 0 4.001831,2.000911 v -4.001823 a 4.00182,2.000911 0 0 0 -0.0579,0 z" />
    <path
       style="display:inline;fill:#3a5ee2;stroke:none;stroke-width:0.264583;stroke-linecap:butt;stroke-linejoin:miter;stroke-miterlimit:4;stroke-dasharray:none;stroke-opacity:1"
       d="M 14.552083,13.229165 1.3229225,19.843748 h 2.61276 a 4.00182,2.000911 0 0 1 3.94394,-2.000912 4.00182,2.000911 0 0 1 0.0579,0 4.00182,2.000911 0 0 1 4.0018165,2.000912 h 5.225532 a 4.0018206,2.0009116 0 0 1 3.943419,-2.000912 4.0018206,2.0009116 0 0 1 5.29e-4,0 4.0018206,2.0009116 0 0 1 0.0579,0 4.0018206,2.0009116 0 0 1 4.00182,2.000912 h 2.61276 z"
       id="path998" />
    <path
       d="m 17.164881,19.84168 a 4.0018206,2.0009116 0 0 1 3.943416,-1.998842 4.0018206,2.0009116 0 0 1 5.29e-4,0 4.0018206,2.0009116 0 0 1 0.0579,0 4.0018206,2.0009116 0 0 1 4.00182,2.000911"
       style="display:inline;fill:none;stroke:#ced8f7;stroke-width:0.264583;stroke-linecap:butt;stroke-linejoin:miter;stroke-miterlimit:4;stroke-dasharray:none;stroke-opacity:1"
       id="path1007" />
    <path
       d="m 3.9369155,19.794066 a 4.00182,2.000911 0 0 1 3.942718,-1.951228 4.00182,2.000911 0 0 1 0.0579,0 4.00182,2.000911 0 0 1 4.0018175,2.000911"
       style="display:inline;fill:none;stroke:#ced8f7;stroke-width:0.264583;stroke-linecap:butt;stroke-linejoin:miter;stroke-miterlimit:4;stroke-dasharray:none;stroke-opacity:1"
       id="path1000" />
    <path
       id="path1010"
       d="M 1.3229225,19.843748 14.552083,13.229165 27.781282,19.843748"
       style="display:inline;fill:none;stroke:#ced8f7;stroke-width:0.264583px;stroke-linecap:butt;stroke-linejoin:miter;stroke-opacity:1" />
    <g
       id="g1687"
       transform="translate(2.579693,17.727083)">
      <path
         id="ellipse1012"
         style="display:inline;opacity:1;fill:#183bb1;fill-opacity:1;stroke:none;stroke-width:0.264583;stroke-linecap:round;stroke-miterlimit:4;stroke-dasharray:none;stroke-opacity:1"
         d="m 5.324747,3.4395834 v 6.465755 a 4.00182,2.000911 0 0 0 4.001822,-2.000911 v -4.464844 z" />
      <path
         id="path1020"
         style="display:inline;opacity:1;fill:#002082;fill-opacity:1;stroke:none;stroke-width:0.264583;stroke-linecap:round;stroke-miterlimit:4;stroke-dasharray:none;stroke-opacity:1"
         d="m 1.3229237,3.4395834 v 4.464844 a 4.00182,2.000911 0 0 0 4.0018233,2.000911 v -6.465755 z" />
      <ellipse
         style="display:inline;opacity:1;fill:#3a5ee2;fill-opacity:1;stroke:#ced8f7;stroke-width:0.264583;stroke-linecap:round;stroke-miterlimit:4;stroke-dasharray:none;stroke-opacity:1"
         id="ellipse1984"
         cx="5.3247461"
         cy="3.4395826"
         rx="4.0018206"
         ry="2.000911" />
      <path
         style="display:inline;fill:none;stroke:#ced8f7;stroke-width:0.264583px;stroke-linecap:butt;stroke-linejoin:miter;stroke-opacity:1"
         d="m 9.326557,3.4395814 v 4.464844"
         id="path1024" />
      <path
         style="display:inline;fill:none;stroke:#ced8f7;stroke-width:0.264583px;stroke-linecap:butt;stroke-linejoin:miter;stroke-opacity:1"
         d="m 1.3229167,3.4395814 v 4.464844"
         id="path1026" />
    </g>
    <g
       transform="translate(15.84192,12.170834)"
       id="g1701">
      <path
         d="m 5.324747,3.4395834 v 6.465755 a 4.00182,2.000911 0 0 0 4.001822,-2.000911 v -4.464844 z"
         style="display:inline;opacity:1;fill:#183bb1;fill-opacity:1;stroke:none;stroke-width:0.264583;stroke-linecap:round;stroke-miterlimit:4;stroke-dasharray:none;stroke-opacity:1"
         id="path1691" />
      <path
         d="m 1.3229237,3.4395834 v 4.464844 a 4.00182,2.000911 0 0 0 4.0018233,2.000911 v -6.465755 z"
         style="display:inline;opacity:1;fill:#002082;fill-opacity:1;stroke:none;stroke-width:0.264583;stroke-linecap:round;stroke-miterlimit:4;stroke-dasharray:none;stroke-opacity:1"
         id="path1693" />
      <ellipse
         ry="2.000911"
         rx="4.0018206"
         cy="3.4395826"
         cx="5.3247461"
         id="ellipse1695"
         style="display:inline;opacity:1;fill:#3a5ee2;fill-opacity:1;stroke:#ced8f7;stroke-width:0.264583;stroke-linecap:round;stroke-miterlimit:4;stroke-dasharray:none;stroke-opacity:1" />
      <path
         id="path1697"
         d="m 9.326557,3.4395814 v 4.464844"
         style="display:inline;fill:none;stroke:#ced8f7;stroke-width:0.264583px;stroke-linecap:butt;stroke-linejoin:miter;stroke-opacity:1" />
      <path
         id="path1699"
         d="m 1.3229167,3.4395814 v 4.464844"
         style="display:inline;fill:none;stroke:#ced8f7;stroke-width:0.264583px;stroke-linecap:butt;stroke-linejoin:miter;stroke-opacity:1" />
    </g>
    <path
       id="path970"
       style="display:inline;fill:#3a5ee2;stroke:none;stroke-width:0.264583;stroke-linecap:butt;stroke-linejoin:miter;stroke-miterlimit:4;stroke-dasharray:none;stroke-opacity:1"
       d="m 27.781255,19.843751 h -2.612762 a 4.0018206,2.0009116 0 0 1 -4.00182,2.000911 4.0018206,2.0009116 0 0 1 -4.00183,-2.000911 h -5.22552 A 4.00182,2.000911 0 0 1 7.9375039,21.844662 4.00182,2.000911 0 0 1 3.9356844,19.843751 h -2.61276 l 13.2291586,6.614583 z" />
    <path
       d="M 11.939321,19.843749 A 4.00182,2.0009109 0 0 1 7.9374983,21.84466 4.00182,2.0009109 0 0 1 3.9356754,19.843749 v 0"
       style="display:inline;fill:none;stroke:#ced8f7;stroke-width:0.264583;stroke-linecap:butt;stroke-linejoin:miter;stroke-miterlimit:4;stroke-dasharray:none;stroke-opacity:1"
       id="path981" />
    <path
       d="m 25.16849,19.843749 a 4.0018206,2.0009116 0 0 1 -4.001823,2.000911 4.0018206,2.0009116 0 0 1 -4.001823,-2.000911 v 0"
       style="display:inline;fill:none;stroke:#ced8f7;stroke-width:0.264583;stroke-linecap:butt;stroke-linejoin:miter;stroke-miterlimit:4;stroke-dasharray:none;stroke-opacity:1"
       id="path974" />
    <path
       id="path984"
       d="M 1.3229244,19.84375 14.552083,26.458334 27.781255,19.84375"
       style="display:inline;fill:none;stroke:#ced8f7;stroke-width:0.264583px;stroke-linecap:butt;stroke-linejoin:miter;stroke-opacity:1" />
    <g
       id="g1713"
       transform="translate(-0.03308028,0.52916664)">
      <path
         id="path1703"
         style="display:inline;opacity:1;fill:#183bb1;fill-opacity:1;stroke:none;stroke-width:0.264583;stroke-linecap:round;stroke-miterlimit:4;stroke-dasharray:none;stroke-opacity:1"
         d="m 5.324747,3.4395834 v 6.465755 a 4.00182,2.000911 0 0 0 4.001822,-2.000911 v -4.464844 z" />
      <path
         id="path1705"
         style="display:inline;opacity:1;fill:#002082;fill-opacity:1;stroke:none;stroke-width:0.264583;stroke-linecap:round;stroke-miterlimit:4;stroke-dasharray:none;stroke-opacity:1"
         d="m 1.3229237,3.4395834 v 4.464844 a 4.00182,2.000911 0 0 0 4.0018233,2.000911 v -6.465755 z" />
      <ellipse
         style="display:inline;opacity:1;fill:#3a5ee2;fill-opacity:1;stroke:#ced8f7;stroke-width:0.264583;stroke-linecap:round;stroke-miterlimit:4;stroke-dasharray:none;stroke-opacity:1"
         id="ellipse1707"
         cx="5.3247461"
         cy="3.4395826"
         rx="4.0018206"
         ry="2.000911" />
      <path
         style="display:inline;fill:none;stroke:#ced8f7;stroke-width:0.264583px;stroke-linecap:butt;stroke-linejoin:miter;stroke-opacity:1"
         d="m 9.326557,3.4395814 v 4.464844"
         id="path1709" />
      <path
         style="display:inline;fill:none;stroke:#ced8f7;stroke-width:0.264583px;stroke-linecap:butt;stroke-linejoin:miter;stroke-opacity:1"
         d="m 1.3229167,3.4395814 v 4.464844"
         id="path1711" />
    </g>
    <path
       id="path1283"
       d="M 14.552083,33.072917 27.781252,26.458334 V 19.84375 l -13.229169,6.614584 z"
       style="display:inline;fill:#183bb1;fill-opacity:1;stroke:#ced8f7;stroke-width:0.264583;stroke-linecap:butt;stroke-linejoin:miter;stroke-miterlimit:4;stroke-dasharray:none;stroke-opacity:1" />
    <path
       style="display:inline;fill:#002082;stroke:#ced8f7;stroke-width:0.264583px;stroke-linecap:butt;stroke-linejoin:miter;stroke-opacity:1"
       d="m 22.489582,29.104159 -1.32289,-0.66145 v 1.322916 l 1.32289,0.661436 z"
       id="path1285" />
    <path
       style="display:inline;fill:#3a5ee2;stroke:#ced8f7;stroke-width:0.264583px;stroke-linecap:butt;stroke-linejoin:miter;stroke-opacity:1"
       d="m 22.489582,29.10416 1.31395,-0.656975 -1.31393,-0.665935 -1.32291,0.661459 z"
       id="path1287" />
    <path
       id="path1289"
       d="m 1.3229135,19.84375 v 6.614584 l 13.2291695,6.614583 v -6.614583 z"
       style="display:inline;fill:#002082;stroke:#ced8f7;stroke-width:0.264583;stroke-linecap:butt;stroke-linejoin:miter;stroke-miterlimit:4;stroke-dasharray:none;stroke-opacity:1" />
    <path
       id="path1291"
       d="m 6.6145836,29.104148 1.3228899,-0.66145 v 1.322916 L 6.6145836,30.42705 Z"
       style="display:inline;fill:#183bb1;stroke:#ced8f7;stroke-width:0.264583px;stroke-linecap:butt;stroke-linejoin:miter;stroke-opacity:1" />
    <path
       id="path1293"
       d="m 6.6145836,29.104149 -1.3139503,-0.656975 1.3139302,-0.665935 1.32291,0.661459 z"
       style="display:inline;fill:#3a5ee2;stroke:#ced8f7;stroke-width:0.264583px;stroke-linecap:butt;stroke-linejoin:miter;stroke-opacity:1" />
    <path
       id="path2006"
       style="display:inline;fill:#002082;fill-opacity:1;stroke:none;stroke-width:0.264583;stroke-linecap:round;stroke-miterlimit:4;stroke-dasharray:none;stroke-opacity:1"
       d="m 14.326408,3.4319302 a 2.000911,4.0018201 26.5 0 0 0.005,4.474436 l 2.204952,1.099408 1.790555,0.892811 3.99602,1.9921858 a 2.000911,4.0018201 26.5 0 0 -0.005,-4.4744358 l -2.205456,-1.099377 -1.790556,-0.89281 z" />
    <path
       id="path2008"
       style="display:inline;fill:#3a5ee2;fill-opacity:1;stroke:none;stroke-width:0.264583;stroke-linecap:round;stroke-miterlimit:4;stroke-dasharray:none;stroke-opacity:1"
       d="M 17.312147,0.63840121 A 2.000911,4.0018201 26.5 0 0 14.326408,3.4319302 l 3.995505,1.992218 1.790556,0.89281 2.205464,1.099377 a 2.000911,4.0018201 26.5 0 0 3.576175,-2.688302 l -3.996019,-1.992186 -1.790556,-0.89281 -2.204952,-1.09940699 a 2.000911,4.0018201 26.5 0 0 -0.590434,-0.105229 z" />
    <ellipse
       style="display:inline;fill:#183bb1;fill-opacity:1;stroke:#ced8f7;stroke-width:0.264583;stroke-linecap:round;stroke-miterlimit:4;stroke-dasharray:none;stroke-opacity:1"
       id="ellipse2010"
       cx="-3.3207808"
       cy="-25.283129"
       rx="4.0018206"
       ry="2.000911"
       transform="rotate(116.5)" />
    <path
       style="display:inline;fill:none;stroke:#ced8f7;stroke-width:0.264583px;stroke-linecap:butt;stroke-linejoin:miter;stroke-opacity:1"
       d="M 25.894076,4.7280242 21.898334,2.7358202 17.902592,0.74361621 c -0.988967,-0.493081 -2.590125,0.71063099 -3.576286,2.68856399 -0.986162,1.977934 -0.983888,3.981087 0.0051,4.47417 l 3.995742,1.992203 3.995741,1.9922028"
       id="path2015"
       sodipodi:nodetypes="cccsccc" />
    <path
       style="font-variation-settings:normal;display:inline;opacity:1;vector-effect:none;fill:#183bb1;fill-opacity:1;stroke:#ced8f7;stroke-width:0.264583;stroke-linecap:round;stroke-linejoin:miter;stroke-miterlimit:4;stroke-dasharray:none;stroke-dashoffset:0;stroke-opacity:1;stop-color:#000000;stop-opacity:1"
       d="m 42.333348,31.66643 -8e-6,-2.645831 13.229167,-6.614583 v 2.645836 z"
       id="path1838" />
    <path
       style="font-variation-settings:normal;display:inline;opacity:1;vector-effect:none;fill:#002082;fill-opacity:1;stroke:#ced8f7;stroke-width:0.264583;stroke-linecap:round;stroke-linejoin:miter;stroke-miterlimit:4;stroke-dasharray:none;stroke-dashoffset:0;stroke-opacity:1;stop-color:#000000;stop-opacity:1"
       d="M 42.333332,31.66643 29.104175,25.051852 v -2.645836 l 13.229165,6.61458 z"
       id="path1840" />
    <path
       id="path1861"
       style="display:inline;fill:#3a5ee2;stroke:#ced8f7;stroke-width:0.264583;stroke-linecap:butt;stroke-linejoin:miter;stroke-miterlimit:4;stroke-dasharray:none;stroke-opacity:1"
       d="m 42.33334,15.79143 -13.229166,6.614583 13.229166,6.614583 13.229167,-6.614583 z m 0,3.307291 6.614583,3.307292 -6.614583,3.307291 -6.614583,-3.307291 z" />
    <path
       style="font-variation-settings:normal;display:inline;opacity:1;vector-effect:none;fill:#8e8e8e;fill-opacity:1;stroke:#e3e3e3;stroke-width:0.264583;stroke-linecap:round;stroke-linejoin:miter;stroke-miterlimit:4;stroke-dasharray:none;stroke-dashoffset:0;stroke-opacity:1;stop-color:#000000;stop-opacity:1"
       d="m 42.333342,7.8539372 -6.614583,3.3072918 6.614583,3.307292 6.614583,-3.307292 z"
       id="path1846" />
    <path
       id="path1848"
       style="display:inline;fill:none;stroke:#ced8f7;stroke-width:0.264583;stroke-linecap:butt;stroke-linejoin:miter;stroke-miterlimit:4;stroke-dasharray:none;stroke-opacity:1"
       d="m 35.71875,19.76018 v 0 l 6.614582,-3.307292 v 0 l 6.614583,3.307292" />
    <path
       style="font-variation-settings:normal;display:inline;opacity:1;vector-effect:none;fill:#414141;fill-opacity:1;stroke:#e3e3e3;stroke-width:0.264583;stroke-linecap:round;stroke-linejoin:miter;stroke-miterlimit:4;stroke-dasharray:none;stroke-dashoffset:0;stroke-opacity:1;stop-color:#000000;stop-opacity:1"
       d="m 35.718756,22.406016 6.614584,3.307289 2e-6,-11.244787 -6.614583,-3.307291 -3e-6,11.244789"
       id="path1857" />
    <path
       style="font-variation-settings:normal;display:inline;opacity:1;vector-effect:none;fill:#656565;fill-opacity:1;stroke:#e3e3e3;stroke-width:0.264583;stroke-linecap:round;stroke-linejoin:miter;stroke-miterlimit:4;stroke-dasharray:none;stroke-dashoffset:0;stroke-opacity:1;stop-color:#000000;stop-opacity:1"
       d="m 42.333342,14.468518 -2e-6,11.244787 6.614583,-3.307289 2e-6,-11.244789 -6.614583,3.307291"
       id="path1859" />
    <path
       id="path1842"
       d="m 42.33334,29.020599 -8e-6,-2.645831 13.229167,-6.614583 v 2.645836 z"
       style="font-variation-settings:normal;display:inline;opacity:1;vector-effect:none;fill:#183bb1;fill-opacity:1;stroke:#ced8f7;stroke-width:0.264583;stroke-linecap:round;stroke-linejoin:miter;stroke-miterlimit:4;stroke-dasharray:none;stroke-dashoffset:0;stroke-opacity:1;stop-color:#000000;stop-opacity:1" />
    <path
       id="path1844"
       d="M 42.333324,29.020599 29.104167,22.406021 v -2.645836 l 13.229165,6.61458 z"
       style="font-variation-settings:normal;display:inline;opacity:1;vector-effect:none;fill:#002082;fill-opacity:1;stroke:#ced8f7;stroke-width:0.264583;stroke-linecap:round;stroke-linejoin:miter;stroke-miterlimit:4;stroke-dasharray:none;stroke-dashoffset:0;stroke-opacity:1;stop-color:#000000;stop-opacity:1" />
    <path
       style="display:inline;fill:#002082;stroke:#ced8f7;stroke-width:0.264583px;stroke-linecap:butt;stroke-linejoin:miter;stroke-opacity:1"
       d="m 49.60936,28.028416 -1.3229,-0.66145 v 1.322916 l 1.3229,0.661436 z"
       id="path1900" />
    <path
       style="display:inline;fill:#3a5ee2;stroke:#ced8f7;stroke-width:0.264583px;stroke-linecap:butt;stroke-linejoin:miter;stroke-opacity:1"
       d="m 49.60936,28.028417 1.31394,-0.656975 -1.31393,-0.665935 -1.32291,0.661459 z"
       id="path1902" />
    <path
       id="path1904"
       d="m 35.057306,28.028416 1.322896,-0.66145 v 1.322916 l -1.322896,0.661436 z"
       style="display:inline;fill:#183bb1;stroke:#ced8f7;stroke-width:0.264583px;stroke-linecap:butt;stroke-linejoin:miter;stroke-opacity:1" />
    <path
       id="path1906"
       d="m 35.057306,28.028417 -1.313944,-0.656975 1.313928,-0.665935 1.322912,0.661459 z"
       style="display:inline;fill:#3a5ee2;stroke:#ced8f7;stroke-width:0.264583px;stroke-linecap:butt;stroke-linejoin:miter;stroke-opacity:1" />
    <path
       id="path2582"
       d="m 48.947923,19.760183 -6.614581,3.307285 -6.614586,-3.307291 3e-6,-3.30729 -6.614592,3.307296 13.229165,6.614586 13.229167,-6.614586 -6.614573,-3.307287 z"
       style="font-variation-settings:normal;opacity:1;vector-effect:none;fill:#3a5ee2;fill-opacity:1;stroke:#ced8f7;stroke-width:0.264583;stroke-linecap:round;stroke-linejoin:miter;stroke-miterlimit:4;stroke-dasharray:none;stroke-dashoffset:0;stroke-opacity:1;stop-color:#000000;stop-opacity:1" />
  </g>
</svg>
